<?xml version="1.0" encoding="UTF-8" standalone="no"?>
<svg width="508mm" height="285.75mm"
 xmlns="http://www.w3.org/2000/svg" xmlns:xlink="http://www.w3.org/1999/xlink"  version="1.2" baseProfile="tiny">
<desc>Created by EvoPdf</desc>
<defs>
<linearGradient gradientUnits="userSpaceOnUse" x1="0" y1="252.283" x2="1190.55" y2="252.283" id="gradient1">
    <stop offset="1e-07" stop-color="#942230" stop-opacity="1" />
    <stop offset="0.0361" stop-color="#921913" stop-opacity="1" />
    <stop offset="0.0846" stop-color="#b02638" stop-opacity="1" />
    <stop offset="0.1237" stop-color="#ae1917" stop-opacity="1" />
    <stop offset="0.1255" stop-color="#b01917" stop-opacity="1" />
    <stop offset="0.1532" stop-color="#ca1517" stop-opacity="1" />
    <stop offset="0.1697" stop-color="#d41317" stop-opacity="1" />
    <stop offset="0.1813" stop-color="#c31a2e" stop-opacity="1" />
    <stop offset="0.2056" stop-color="#972d69" stop-opacity="1" />
    <stop offset="0.2142" stop-color="#87347f" stop-opacity="1" />
    <stop offset="0.2436" stop-color="#843580" stop-opacity="1" />
    <stop offset="0.2638" stop-color="#6e358b" stop-opacity="1" />
    <stop offset="0.2911" stop-color="#39418f" stop-opacity="1" />
    <stop offset="0.3242" stop-color="#14387f" stop-opacity="1" />
    <stop offset="0.4181" stop-color="#312a6f" stop-opacity="1" />
    <stop offset="0.494" stop-color="#283486" stop-opacity="1" />
    <stop offset="0.5581" stop-color="#1c61a0" stop-opacity="1" />
    <stop offset="0.5876" stop-color="#327dab" stop-opacity="1" />
    <stop offset="0.632" stop-color="#50a1b9" stop-opacity="1" />
    <stop offset="0.6556" stop-color="#5bafbf" stop-opacity="1" />
    <stop offset="0.6714" stop-color="#55adbe" stop-opacity="1" />
    <stop offset="0.6916" stop-color="#46a6bb" stop-opacity="1" />
    <stop offset="0.7142" stop-color="#2b9cb6" stop-opacity="1" />
    <stop offset="0.7384" stop-color="#078dae" stop-opacity="1" />
    <stop offset="0.7426" stop-color="#008aad" stop-opacity="1" />
    <stop offset="0.8342" stop-color="#009871" stop-opacity="1" />
    <stop offset="0.8875" stop-color="#00a14c" stop-opacity="1" />
    <stop offset="1" stop-color="#00917d" stop-opacity="1" />
</linearGradient>
<linearGradient gradientUnits="userSpaceOnUse" x1="339.377" y1="378.426" x2="192.587" y2="378.426" id="gradient2">
    <stop offset="1e-07" stop-color="#88357f" stop-opacity="1" />
    <stop offset="0.3354" stop-color="#88357f" stop-opacity="1" />
    <stop offset="0.7165" stop-color="#8c2b58" stop-opacity="1" />
    <stop offset="1" stop-color="#8f2540" stop-opacity="1" />
</linearGradient>
<linearGradient gradientUnits="userSpaceOnUse" x1="592.579" y1="0.4916" x2="539.252" y2="333.952" id="gradient3">
    <stop offset="1e-07" stop-color="#312a6f" stop-opacity="1" />
    <stop offset="0.2427" stop-color="#312a6f" stop-opacity="1" />
    <stop offset="0.4514" stop-color="#2c2d73" stop-opacity="1" />
    <stop offset="0.697" stop-color="#1e377f" stop-opacity="1" />
    <stop offset="0.9604" stop-color="#064692" stop-opacity="1" />
    <stop offset="1" stop-color="#024995" stop-opacity="1" />
</linearGradient>
<linearGradient gradientUnits="userSpaceOnUse" x1="288.268" y1="252.283" x2="417.983" y2="252.283" id="gradient4">
    <stop offset="1e-07" stop-color="#6e368c" stop-opacity="1" />
    <stop offset="1" stop-color="#3a4190" stop-opacity="1" />
</linearGradient>
<linearGradient gradientUnits="userSpaceOnUse" x1="515.15" y1="252.283" x2="339.377" y2="252.283" id="gradient5">
    <stop offset="1e-07" stop-color="#14387f" stop-opacity="1" />
    <stop offset="0.2156" stop-color="#19387f" stop-opacity="1" />
    <stop offset="0.4705" stop-color="#273881" stop-opacity="1" />
    <stop offset="0.7443" stop-color="#3f3983" stop-opacity="1" />
    <stop offset="1" stop-color="#5c3986" stop-opacity="1" />
</linearGradient>
<linearGradient gradientUnits="userSpaceOnUse" x1="345.941" y1="126.143" x2="187.146" y2="126.143" id="gradient6">
    <stop offset="1e-07" stop-color="#88357f" stop-opacity="1" />
    <stop offset="0.3354" stop-color="#88357f" stop-opacity="1" />
    <stop offset="0.7165" stop-color="#8c2b58" stop-opacity="1" />
    <stop offset="1" stop-color="#8f2540" stop-opacity="1" />
</linearGradient>
<linearGradient gradientUnits="userSpaceOnUse" x1="1037.24" y1="0" x2="1037.24" y2="504.567" id="gradient7">
    <stop offset="1e-07" stop-color="#94bd55" stop-opacity="1" />
    <stop offset="0.2993" stop-color="#8cbc66" stop-opacity="1" />
    <stop offset="0.6727" stop-color="#85bb73" stop-opacity="1" />
    <stop offset="1" stop-color="#83bb78" stop-opacity="1" />
</linearGradient>
<linearGradient gradientUnits="userSpaceOnUse" x1="880.433" y1="5.3587" x2="1011.7" y2="502.181" id="gradient8">
    <stop offset="1e-07" stop-color="#00a24c" stop-opacity="1" />
    <stop offset="0.2661" stop-color="#00a053" stop-opacity="1" />
    <stop offset="0.6408" stop-color="#009a65" stop-opacity="1" />
    <stop offset="1" stop-color="#00937d" stop-opacity="1" />
</linearGradient>
<linearGradient gradientUnits="userSpaceOnUse" x1="1142.41" y1="0" x2="1142.41" y2="504.567" id="gradient9">
    <stop offset="1e-07" stop-color="#699f60" stop-opacity="1" />
    <stop offset="0.0035" stop-color="#689f60" stop-opacity="1" />
    <stop offset="0.1504" stop-color="#4d9752" stop-opacity="1" />
    <stop offset="0.309" stop-color="#389147" stop-opacity="1" />
    <stop offset="0.4853" stop-color="#298c40" stop-opacity="1" />
    <stop offset="0.6916" stop-color="#208a3b" stop-opacity="1" />
    <stop offset="1" stop-color="#1d893a" stop-opacity="1" />
</linearGradient>
<linearGradient gradientUnits="userSpaceOnUse" x1="878.411" y1="0" x2="878.411" y2="504.567" id="gradient10">
    <stop offset="1e-07" stop-color="#00b5dd" stop-opacity="1" />
    <stop offset="0.2751" stop-color="#00afd6" stop-opacity="1" />
    <stop offset="0.6717" stop-color="#009ec3" stop-opacity="1" />
    <stop offset="1" stop-color="#008bae" stop-opacity="1" />
</linearGradient>
<linearGradient gradientUnits="userSpaceOnUse" x1="1040.71" y1="205.619" x2="1115.9" y2="71.4863" id="gradient11">
    <stop offset="1e-07" stop-color="#62b16e" stop-opacity="1" />
    <stop offset="1" stop-color="#86b857" stop-opacity="1" />
</linearGradient>
<linearGradient gradientUnits="userSpaceOnUse" x1="710.21" y1="11.2366" x2="843.86" y2="510.025" id="gradient12">
    <stop offset="1e-07" stop-color="#009ad4" stop-opacity="1" />
    <stop offset="0.2238" stop-color="#0f9ed1" stop-opacity="1" />
    <stop offset="0.6535" stop-color="#37a7c8" stop-opacity="1" />
    <stop offset="1" stop-color="#5bb0c0" stop-opacity="1" />
</linearGradient>
<linearGradient gradientUnits="userSpaceOnUse" x1="636.077" y1="0" x2="636.077" y2="504.567" id="gradient13">
    <stop offset="1e-07" stop-color="#174290" stop-opacity="1" />
    <stop offset="0.3971" stop-color="#20559e" stop-opacity="1" />
    <stop offset="1" stop-color="#327ab9" stop-opacity="1" />
</linearGradient>
<linearGradient gradientUnits="userSpaceOnUse" x1="717.675" y1="504.567" x2="717.675" y2="0" id="gradient14">
    <stop offset="1e-07" stop-color="#3e9ac9" stop-opacity="1" />
    <stop offset="1" stop-color="#1d61a1" stop-opacity="1" />
</linearGradient>
</defs>
<g fill="none" stroke="black" stroke-width="1" fill-rule="evenodd" stroke-linecap="square" stroke-linejoin="bevel" >

<g fill="#000000" fill-opacity="1" stroke="#000000" stroke-opacity="1" stroke-width="1" stroke-linecap="butt" stroke-linejoin="miter" stroke-miterlimit="2" transform="matrix(1,0,0,1,0,0)"
>
</g>

<g fill="#000000" fill-opacity="1" stroke="#000000" stroke-opacity="1" stroke-width="1" stroke-linecap="butt" stroke-linejoin="miter" stroke-miterlimit="2" transform="matrix(1,0,0,1,0,0)"
>
</g>

<g fill="#000000" fill-opacity="1" stroke="#000000" stroke-opacity="1" stroke-width="1" stroke-linecap="butt" stroke-linejoin="miter" stroke-miterlimit="2" transform="matrix(1,0,0,1,0,0)"
>
</g>

<g fill="#000000" fill-opacity="1" stroke="#000000" stroke-opacity="1" stroke-width="1" stroke-linecap="butt" stroke-linejoin="miter" stroke-miterlimit="2" transform="matrix(1,0,0,1,0,0)"
>
</g>

<g fill="#000000" fill-opacity="1" stroke="#000000" stroke-opacity="1" stroke-width="1" stroke-linecap="butt" stroke-linejoin="miter" stroke-miterlimit="2" transform="matrix(1.59926,0,0,10.7023,8,-2152.01)"
>
</g>

<g fill="url(#gradient1)" stroke="none" transform="matrix(1.59926,0,0,10.7023,8,-2152.01)"
>
<rect x="0" y="0" width="1190.55" height="504.567"/>
</g>

<g fill="#000000" fill-opacity="1" stroke="#000000" stroke-opacity="1" stroke-width="1" stroke-linecap="butt" stroke-linejoin="miter" stroke-miterlimit="2" transform="matrix(1.59926,0,0,10.7023,8,-2152.01)"
>
</g>

<g fill="#000000" fill-opacity="1" stroke="#000000" stroke-opacity="1" stroke-width="1" stroke-linecap="butt" stroke-linejoin="miter" stroke-miterlimit="2" transform="matrix(1.59926,0,0,10.7023,8,-2152.01)"
>
</g>

<g fill="url(#gradient2)" stroke="none" transform="matrix(1.59926,0,0,10.7023,8,-2152.01)"
>
<path vector-effect="none" fill-rule="nonzero" d="M192.587,504.567 L339.377,504.567 L288.268,252.286 L192.587,504.567"/>
</g>

<g fill="#000000" fill-opacity="1" stroke="#000000" stroke-opacity="1" stroke-width="1" stroke-linecap="butt" stroke-linejoin="miter" stroke-miterlimit="2" transform="matrix(1.59926,0,0,10.7023,8,-2152.01)"
>
</g>

<g fill="#000000" fill-opacity="1" stroke="#000000" stroke-opacity="1" stroke-width="1" stroke-linecap="butt" stroke-linejoin="miter" stroke-miterlimit="2" transform="matrix(1.59926,0,0,10.7023,8,-2152.01)"
>
</g>

<g fill="url(#gradient3)" stroke="none" transform="matrix(1.59926,0,0,10.7023,8,-2152.01)"
>
<path vector-effect="none" fill-rule="nonzero" d="M589.505,0 L515.15,0 L474.774,252.286 L511.518,504.567 L589.505,504.567 L589.505,0"/>
</g>

<g fill="#000000" fill-opacity="1" stroke="#000000" stroke-opacity="1" stroke-width="1" stroke-linecap="butt" stroke-linejoin="miter" stroke-miterlimit="2" transform="matrix(1.59926,0,0,10.7023,8,-2152.01)"
>
</g>

<g fill="#000000" fill-opacity="1" stroke="#000000" stroke-opacity="1" stroke-width="1" stroke-linecap="butt" stroke-linejoin="miter" stroke-miterlimit="2" transform="matrix(1.59926,0,0,10.7023,8,-2152.01)"
>
</g>

<g fill="url(#gradient4)" stroke="none" transform="matrix(1.59926,0,0,10.7023,8,-2152.01)"
>
<path vector-effect="none" fill-rule="nonzero" d="M344.82,0 L344.766,0 L288.268,252.286 L339.377,504.567 L417.983,252.286 L344.82,0"/>
</g>

<g fill="#000000" fill-opacity="1" stroke="#000000" stroke-opacity="1" stroke-width="1" stroke-linecap="butt" stroke-linejoin="miter" stroke-miterlimit="2" transform="matrix(1.59926,0,0,10.7023,8,-2152.01)"
>
</g>

<g fill="#000000" fill-opacity="1" stroke="#000000" stroke-opacity="1" stroke-width="1" stroke-linecap="butt" stroke-linejoin="miter" stroke-miterlimit="2" transform="matrix(1.59926,0,0,10.7023,8,-2152.01)"
>
</g>

<g fill="url(#gradient5)" stroke="none" transform="matrix(1.59926,0,0,10.7023,8,-2152.01)"
>
<path vector-effect="none" fill-rule="nonzero" d="M515.15,0 L344.82,0 L417.983,252.286 L339.377,504.567 L511.518,504.567 L474.774,252.286 L515.15,0"/>
</g>

<g fill="#000000" fill-opacity="1" stroke="#000000" stroke-opacity="1" stroke-width="1" stroke-linecap="butt" stroke-linejoin="miter" stroke-miterlimit="2" transform="matrix(1.59926,0,0,10.7023,8,-2152.01)"
>
</g>

<g fill="#000000" fill-opacity="1" stroke="#000000" stroke-opacity="1" stroke-width="1" stroke-linecap="butt" stroke-linejoin="miter" stroke-miterlimit="2" transform="matrix(1.59926,0,0,10.7023,8,-2152.01)"
>
</g>

<g fill="#af1917" fill-opacity="1" stroke="none" transform="matrix(1.59926,0,0,10.7023,8,-2152.01)"
>
<path vector-effect="none" fill-rule="nonzero" d="M191.123,0 L91.598,0 L91.598,156.161 L147.98,252.286 L91.598,348.41 L91.598,504.567 L192.587,504.567 L156.64,252.286 L191.123,0"/>
</g>

<g fill="#000000" fill-opacity="1" stroke="#000000" stroke-opacity="1" stroke-width="1" stroke-linecap="butt" stroke-linejoin="miter" stroke-miterlimit="2" transform="matrix(1.59926,0,0,10.7023,8,-2152.01)"
>
</g>

<g fill="url(#gradient6)" stroke="none" transform="matrix(1.59926,0,0,10.7023,8,-2152.01)"
>
<path vector-effect="none" fill-rule="nonzero" d="M344.766,0 L191.123,0 L288.268,252.286 L344.766,0"/>
</g>

<g fill="#000000" fill-opacity="1" stroke="#000000" stroke-opacity="1" stroke-width="1" stroke-linecap="butt" stroke-linejoin="miter" stroke-miterlimit="2" transform="matrix(1.59926,0,0,10.7023,8,-2152.01)"
>
</g>

<g fill="#000000" fill-opacity="1" stroke="#000000" stroke-opacity="1" stroke-width="1" stroke-linecap="butt" stroke-linejoin="miter" stroke-miterlimit="2" transform="matrix(1.59926,0,0,10.7023,8,-2152.01)"
>
</g>

<g fill="#b12638" fill-opacity="1" stroke="none" transform="matrix(1.59926,0,0,10.7023,8,-2152.01)"
>
<path vector-effect="none" fill-rule="nonzero" d="M147.98,252.286 L91.598,156.161 L91.598,348.41 L147.98,252.286"/>
</g>

<g fill="#000000" fill-opacity="1" stroke="#000000" stroke-opacity="1" stroke-width="1" stroke-linecap="butt" stroke-linejoin="miter" stroke-miterlimit="2" transform="matrix(1.59926,0,0,10.7023,8,-2152.01)"
>
</g>

<g fill="#942331" fill-opacity="1" stroke="none" transform="matrix(1.59926,0,0,10.7023,8,-2152.01)"
>
<path vector-effect="none" fill-rule="nonzero" d="M91.598,156.161 L0,0 L0,504.567 L91.598,348.41 L91.598,156.161"/>
</g>

<g fill="#000000" fill-opacity="1" stroke="#000000" stroke-opacity="1" stroke-width="1" stroke-linecap="butt" stroke-linejoin="miter" stroke-miterlimit="2" transform="matrix(1.59926,0,0,10.7023,8,-2152.01)"
>
</g>

<g fill="#d51317" fill-opacity="1" stroke="none" transform="matrix(1.59926,0,0,10.7023,8,-2152.01)"
>
<path vector-effect="none" fill-rule="nonzero" d="M191.123,0 L156.64,252.286 L192.587,504.567 L288.268,252.286 L191.123,0"/>
</g>

<g fill="#000000" fill-opacity="1" stroke="#000000" stroke-opacity="1" stroke-width="1" stroke-linecap="butt" stroke-linejoin="miter" stroke-miterlimit="2" transform="matrix(1.59926,0,0,10.7023,8,-2152.01)"
>
</g>

<g fill="url(#gradient7)" stroke="none" transform="matrix(1.59926,0,0,10.7023,8,-2152.01)"
>
<path vector-effect="none" fill-rule="nonzero" d="M1056.34,427.403 C1059.22,385.62 1072.85,337.448 1087.28,286.442 C1089.58,278.286 1091.91,270 1094.27,261.584 C1091.93,252.546 1089.6,243.638 1087.27,234.858 C1072.85,180.032 1059.22,128.258 1056.34,83.3457 C1054.11,48.4809 1058.67,22.4 1071.04,0 L995.452,0 C983.081,30.0851 978.514,47.8861 980.753,82.751 C983.63,127.658 997.265,179.436 1011.69,234.259 C1033.06,315.468 1057.8,409.088 1049.86,504.567 L1071.08,504.567 C1058.68,483.715 1054.11,459.873 1056.34,427.403 "/>
</g>

<g fill="#000000" fill-opacity="1" stroke="#000000" stroke-opacity="1" stroke-width="1" stroke-linecap="butt" stroke-linejoin="miter" stroke-miterlimit="2" transform="matrix(1.59926,0,0,10.7023,8,-2152.01)"
>
</g>

<g fill="#000000" fill-opacity="1" stroke="#000000" stroke-opacity="1" stroke-width="1" stroke-linecap="butt" stroke-linejoin="miter" stroke-miterlimit="2" transform="matrix(1.59926,0,0,10.7023,8,-2152.01)"
>
</g>

<g fill="url(#gradient8)" stroke="none" transform="matrix(1.59926,0,0,10.7023,8,-2152.01)"
>
<path vector-effect="none" fill-rule="nonzero" d="M1011.69,234.259 C997.266,179.437 983.632,127.658 980.754,82.751 C978.518,47.8861 983.085,30.0851 995.456,0 L937.091,0 C946.417,88.8106 930.87,175.725 914.692,274.603 C905.249,332.297 895.481,391.947 892.952,440.301 C891.13,475.072 893.554,494.248 895.892,504.567 L1049.86,504.567 C1057.8,409.088 1033.07,315.468 1011.69,234.259 "/>
</g>

<g fill="#000000" fill-opacity="1" stroke="#000000" stroke-opacity="1" stroke-width="1" stroke-linecap="butt" stroke-linejoin="miter" stroke-miterlimit="2" transform="matrix(1.59926,0,0,10.7023,8,-2152.01)"
>
</g>

<g fill="#000000" fill-opacity="1" stroke="#000000" stroke-opacity="1" stroke-width="1" stroke-linecap="butt" stroke-linejoin="miter" stroke-miterlimit="2" transform="matrix(1.59926,0,0,10.7023,8,-2152.01)"
>
</g>

<g fill="#169a39" fill-opacity="1" stroke="none" transform="matrix(1.59926,0,0,10.7023,8,-2152.01)"
>
<path vector-effect="none" fill-rule="nonzero" d="M1094.27,261.584 C1091.93,269.995 1089.6,278.281 1087.28,286.442 C1072.85,337.448 1059.22,385.62 1056.34,427.403 C1054.1,459.874 1058.68,483.716 1071.08,504.567 L1125.42,504.567 C1132.51,419.395 1113.61,336.198 1094.27,261.584 "/>
</g>

<g fill="#000000" fill-opacity="1" stroke="#000000" stroke-opacity="1" stroke-width="1" stroke-linecap="butt" stroke-linejoin="miter" stroke-miterlimit="2" transform="matrix(1.59926,0,0,10.7023,8,-2152.01)"
>
</g>

<g fill="url(#gradient9)" stroke="none" transform="matrix(1.59926,0,0,10.7023,8,-2152.01)"
>
<path vector-effect="none" fill-rule="nonzero" d="M1120.49,0 C1138.08,91.1128 1116.45,181.808 1094.27,261.584 C1113.6,336.198 1132.51,419.396 1125.42,504.567 L1190.55,504.567 L1190.55,0 L1120.49,0 L1120.49,0"/>
</g>

<g fill="#000000" fill-opacity="1" stroke="#000000" stroke-opacity="1" stroke-width="1" stroke-linecap="butt" stroke-linejoin="miter" stroke-miterlimit="2" transform="matrix(1.59926,0,0,10.7023,8,-2152.01)"
>
</g>

<g fill="#000000" fill-opacity="1" stroke="#000000" stroke-opacity="1" stroke-width="1" stroke-linecap="butt" stroke-linejoin="miter" stroke-miterlimit="2" transform="matrix(1.59926,0,0,10.7023,8,-2152.01)"
>
</g>

<g fill="url(#gradient10)" stroke="none" transform="matrix(1.59926,0,0,10.7023,8,-2152.01)"
>
<path vector-effect="none" fill-rule="nonzero" d="M892.952,440.301 C895.481,391.947 905.249,332.296 914.692,274.603 C930.87,175.725 946.417,88.8106 937.091,0 L820.485,0 C818.153,18.7886 815.741,31.5859 817.563,68.8941 C820.094,120.863 829.854,184.975 839.295,246.981 C853.198,338.272 866.625,426.199 864.229,504.566 L895.892,504.566 C893.553,494.248 891.13,475.072 892.952,440.301 "/>
</g>

<g fill="#000000" fill-opacity="1" stroke="#000000" stroke-opacity="1" stroke-width="1" stroke-linecap="butt" stroke-linejoin="miter" stroke-miterlimit="2" transform="matrix(1.59926,0,0,10.7023,8,-2152.01)"
>
</g>

<g fill="#000000" fill-opacity="1" stroke="#000000" stroke-opacity="1" stroke-width="1" stroke-linecap="butt" stroke-linejoin="miter" stroke-miterlimit="2" transform="matrix(1.59926,0,0,10.7023,8,-2152.01)"
>
</g>

<g fill="#283587" fill-opacity="1" stroke="none" transform="matrix(1.59926,0,0,10.7023,8,-2152.01)"
>
<path vector-effect="none" fill-rule="nonzero" d="M589.505,0 L589.505,504.567 L618.633,252.286 L589.505,0"/>
</g>

<g fill="#000000" fill-opacity="1" stroke="#000000" stroke-opacity="1" stroke-width="1" stroke-linecap="butt" stroke-linejoin="miter" stroke-miterlimit="2" transform="matrix(1.59926,0,0,10.7023,8,-2152.01)"
>
</g>

<g fill="url(#gradient11)" stroke="none" transform="matrix(1.59926,0,0,10.7023,8,-2152.01)"
>
<path vector-effect="none" fill-rule="nonzero" d="M1056.34,83.3462 C1059.22,128.258 1072.85,180.032 1087.28,234.858 C1089.59,243.63 1091.92,252.539 1094.27,261.584 C1116.46,181.808 1138.08,91.1131 1120.49,6.10352e-05 L1071.04,6.10352e-05 C1058.67,22.4 1054.11,48.4809 1056.34,83.3462 "/>
</g>

<g fill="#000000" fill-opacity="1" stroke="#000000" stroke-opacity="1" stroke-width="1" stroke-linecap="butt" stroke-linejoin="miter" stroke-miterlimit="2" transform="matrix(1.59926,0,0,10.7023,8,-2152.01)"
>
</g>

<g fill="#000000" fill-opacity="1" stroke="#000000" stroke-opacity="1" stroke-width="1" stroke-linecap="butt" stroke-linejoin="miter" stroke-miterlimit="2" transform="matrix(1.59926,0,0,10.7023,8,-2152.01)"
>
</g>

<g fill="url(#gradient12)" stroke="none" transform="matrix(1.59926,0,0,10.7023,8,-2152.01)"
>
<path vector-effect="none" fill-rule="nonzero" d="M839.295,246.982 C829.854,184.976 820.094,120.863 817.563,68.895 C815.741,31.5868 818.153,18.7894 820.485,0.000892639 L752.145,0.000892639 C754.658,66.1069 749.672,140.409 740.692,264.705 C735.514,336.369 727.512,446.669 729.112,504.567 L864.229,504.567 C866.625,426.2 853.198,338.272 839.295,246.982 "/>
</g>

<g fill="#000000" fill-opacity="1" stroke="#000000" stroke-opacity="1" stroke-width="1" stroke-linecap="butt" stroke-linejoin="miter" stroke-miterlimit="2" transform="matrix(1.59926,0,0,10.7023,8,-2152.01)"
>
</g>

<g fill="#000000" fill-opacity="1" stroke="#000000" stroke-opacity="1" stroke-width="1" stroke-linecap="butt" stroke-linejoin="miter" stroke-miterlimit="2" transform="matrix(1.59926,0,0,10.7023,8,-2152.01)"
>
</g>

<g fill="url(#gradient13)" stroke="none" transform="matrix(1.59926,0,0,10.7023,8,-2152.01)"
>
<path vector-effect="none" fill-rule="nonzero" d="M589.505,0 L618.633,252.286 L589.505,504.567 L682.555,504.567 L682.649,0 L589.505,0"/>
</g>

<g fill="#000000" fill-opacity="1" stroke="#000000" stroke-opacity="1" stroke-width="1" stroke-linecap="butt" stroke-linejoin="miter" stroke-miterlimit="2" transform="matrix(1.59926,0,0,10.7023,8,-2152.01)"
>
</g>

<g fill="#000000" fill-opacity="1" stroke="#000000" stroke-opacity="1" stroke-width="1" stroke-linecap="butt" stroke-linejoin="miter" stroke-miterlimit="2" transform="matrix(1.59926,0,0,10.7023,8,-2152.01)"
>
</g>

<g fill="url(#gradient14)" stroke="none" transform="matrix(1.59926,0,0,10.7023,8,-2152.01)"
>
<path vector-effect="none" fill-rule="nonzero" d="M740.692,264.704 C749.672,140.408 754.659,66.106 752.145,0 L682.649,0 L682.555,504.567 L729.112,504.567 C727.512,446.668 735.514,336.369 740.692,264.704 "/>
</g>

<g fill="#000000" fill-opacity="1" stroke="#000000" stroke-opacity="1" stroke-width="1" stroke-linecap="butt" stroke-linejoin="miter" stroke-miterlimit="2" transform="matrix(1.59926,0,0,10.7023,8,-2152.01)"
>
</g>

<g fill="#000000" fill-opacity="1" stroke="#000000" stroke-opacity="1" stroke-width="1" stroke-linecap="butt" stroke-linejoin="miter" stroke-miterlimit="2" transform="matrix(1.59926,0,0,10.7023,8,-2152.01)"
>
</g>

<g fill="#000000" fill-opacity="1" stroke="#000000" stroke-opacity="1" stroke-width="1" stroke-linecap="butt" stroke-linejoin="miter" stroke-miterlimit="2" transform="matrix(1.59926,0,0,10.7023,8,-2152.01)"
>
</g>

<g fill="#000000" fill-opacity="1" stroke="#000000" stroke-opacity="1" stroke-width="1" stroke-linecap="butt" stroke-linejoin="miter" stroke-miterlimit="2" transform="matrix(1,0,0,1,0,0)"
>
</g>

<g fill="#000000" fill-opacity="1" stroke="#000000" stroke-opacity="1" stroke-width="1" stroke-linecap="butt" stroke-linejoin="miter" stroke-miterlimit="2" transform="matrix(1,0,0,1,0,0)"
>
</g>

<g fill="#000000" fill-opacity="1" stroke="#000000" stroke-opacity="1" stroke-width="1" stroke-linecap="butt" stroke-linejoin="miter" stroke-miterlimit="2" transform="matrix(1,0,0,1,0,0)"
>
</g>

<g fill="#000000" fill-opacity="1" stroke="#000000" stroke-opacity="1" stroke-width="1" stroke-linecap="butt" stroke-linejoin="miter" stroke-miterlimit="2" transform="matrix(1,0,0,1,0,0)"
>
</g>

<g fill="#000000" fill-opacity="1" stroke="#000000" stroke-opacity="1" stroke-width="1" stroke-linecap="butt" stroke-linejoin="miter" stroke-miterlimit="2" transform="matrix(1,0,0,1,0,0)"
>
</g>

<g fill="#000000" fill-opacity="1" stroke="#000000" stroke-opacity="1" stroke-width="1" stroke-linecap="butt" stroke-linejoin="miter" stroke-miterlimit="2" transform="matrix(1,0,0,1,0,0)"
>
</g>
</g>
</svg>
